<?xml version="1.0" standalone="no"?><!DOCTYPE svg PUBLIC "-//W3C//DTD SVG 1.1//EN" "http://www.w3.org/Graphics/SVG/1.1/DTD/svg11.dtd"><svg t="1616325614041" class="icon" viewBox="0 0 1024 1024" version="1.1" xmlns="http://www.w3.org/2000/svg" p-id="2180" xmlns:xlink="http://www.w3.org/1999/xlink" width="48" height="48"><defs><style type="text/css"></style></defs><path d="M603.52 640.224c-2.464-1.136-246.624-158.8-334.352-320.032a202.592 202.592 0 0 1-33.776-112.272C235.392 93.216 330.576 0 447.68 0c83.328 0 146.496 66.72 176.624 100.528C656.304 64.432 716.992 0 800.912 0c117.12 0 212.288 93.216 212.288 207.92 0 39.232-12 77.904-34.496 112.272-81.44 145.92-293.008 291.84-334.384 319.472l-1.312 0.56c-6.88 4.32-13.152 6.176-20.032 6.176-6.288 0-13.152-2.448-19.44-6.176z m145.744 99.84l4.928 10.224s9.472 63.2-122.048 54.656c-131.504-8.544-207.904-44.976-242.608-66.192-34.688-21.216-89.664 35.296-34.688 67.04 54.96 31.76 300.64 137.52 401.664 59.936 97.392-74.72 101.04-136.096 70.288-174.528-1.056-1.232-2.176-2.336-3.552-2.656a952.608 952.608 0 0 0 33.808-32.416c13.152-13.456 43.856-44.112 83.344-44.112 13.152 0 26.88 3.728 40.048 11.04 39.472 22.768 54.544 68.72 35.088 105.248-0.576 1.856-1.904 3.008-2.48 4.288 0 0.72-0.592 0.72-0.592 1.28l-6.272 8.032c-115.808 144.624-159.072 205.344-174.72 230.544C818.304 993.92 781.472 1024 746.96 1024H447.68c-13.744 0-27.632-3.728-39.472-9.888h-0.592l-1.312-1.28c-28.8-17.76-120.176-70.448-158.336-82.768-18.864-5.44-106.432-9.168-177.2-9.168C31.872 920.896 0 889.68 0 851.584V690.352c0-38.08 31.872-69.312 70.768-69.312 29.968 0 55.696-7.872 82.592-15.888l3.072-1.28c30.72-9.184 58.928-17.2 90.8-17.2 113.312 0 159.072 32.512 217.264 73.04l3.072 2.432c19.44 14.176 41.376 29.488 68.864 45.392 24.416 14.752 128.96 26.336 194.736 30.08 6.64 0.416 12.64 1.232 18.08 2.448z" p-id="2181" fill="#5171C3"></path></svg>